<svg xmlns="http://www.w3.org/2000/svg" viewBox="0 0 160 160">
  <path fill="#e3ff00" d="M127.14,91.9c-6.47-13.99-.21-30.69,13.78-37.17l-8.77-19c-10.86,5.01-19.42,13.78-24.22,24.64-11.07,24.64,0,53.66,24.85,64.52l8.56-19c-6.26-2.71-11.27-7.73-14.2-13.99h0ZM112.94,27.8l-12.11-17.12c-6.47,4.59-12.11,10.02-17.12,16.29l16.29,12.95c3.76-4.59,7.93-8.56,12.95-12.11h0ZM86.01,80.21c0-27.14-13.15-52.83-35.08-68.9l-12.53,16.91c16.7,12.11,26.52,31.53,26.73,52.2,0,27.14,12.95,52.83,34.87,68.9l12.32-16.91c-16.5-12.32-26.31-31.53-26.31-52.2h0ZM38.4,132.41l12.53,16.91c6.06-4.38,11.48-9.81,16.08-15.66l-16.29-12.94c-3.55,4.38-7.73,8.35-12.32,11.69h0ZM17.94,35.52l-7.93,19.42c6.89,2.71,12.32,8.14,15.03,15.03,5.64,13.99-1.04,29.86-14.82,35.5l7.93,19.42c12.11-5.01,21.51-14.41,26.31-26.52,10.02-24.85-1.88-52.83-26.52-62.85Z"/>
</svg>
