<?xml version="1.0" encoding="UTF-8"?>
<svg xmlns="http://www.w3.org/2000/svg" version="1.1" viewBox="0 0 600 160">
  <path fill="#1a1a1a" d="M127.14,91.9c-6.47-13.99-.21-30.69,13.78-37.17l-8.77-19c-10.86,5.01-19.42,13.78-24.22,24.64-11.07,24.64,0,53.66,24.85,64.52l8.56-19c-6.26-2.71-11.27-7.73-14.2-13.99h0ZM112.94,27.8l-12.11-17.12c-6.47,4.59-12.11,10.02-17.12,16.29l16.29,12.95c3.76-4.59,7.93-8.56,12.95-12.11h0ZM86.01,80.21c0-27.14-13.15-52.83-35.08-68.9l-12.53,16.91c16.7,12.11,26.52,31.53,26.73,52.2,0,27.14,12.95,52.83,34.87,68.9l12.32-16.91c-16.5-12.32-26.31-31.53-26.31-52.2h0ZM38.4,132.41l12.53,16.91c6.06-4.38,11.48-9.81,16.08-15.66l-16.29-12.94c-3.55,4.38-7.73,8.35-12.32,11.69h0ZM17.94,35.52l-7.93,19.42c6.89,2.71,12.32,8.14,15.03,15.03,5.64,13.99-1.04,29.86-14.82,35.5l7.93,19.42c12.11-5.01,21.51-14.41,26.31-26.52,10.02-24.85-1.88-52.83-26.52-62.85Z"/>
  <path fill="#1a1a1a" d="M487.5,86.77h-14.24v-9.4h13.84c1.27.13,2.55-.17,3.65-.81,1.27-2.21,1.27-4.93,0-7.14-1.11-.65-2.38-.92-3.65-.79h-13.84v-9.46h14.24c2.69-.06,5.37.5,7.81,1.63,2.13,1.06,3.9,2.71,5.12,4.76,2.42,4.7,2.42,10.25,0,14.95-1.21,2.03-2.99,3.65-5.12,4.68-2.46,1.09-5.12,1.59-7.81,1.46v.13ZM480.25,96.73h-10.57v-37.58h10.57v37.58ZM314.26,86.77h-14.24v-9.4h13.84c1.27.13,2.55-.17,3.65-.81,1.27-2.21,1.27-4.93,0-7.14-1.11-.65-2.38-.92-3.65-.79h-13.84v-9.46h14.24c2.69-.06,5.37.5,7.81,1.63,2.13,1.06,3.9,2.71,5.12,4.76,2.42,4.7,2.42,10.25,0,14.95-1.21,2.03-2.99,3.65-5.12,4.68-2.46,1.09-5.12,1.59-7.81,1.46v.13ZM306.43,96.73h-10.52v-37.58h10.52v37.58ZM559.43,96.73h-10.88l13.07-37.58h15.3l13.07,37.58h-11.69l-5.95-18.62-2.96-9.81h-.79l-3.11,9.81-6.06,18.62ZM582.49,89.48h-26.14v-9.19h26.14v9.19ZM519.22,96.73h-10.57v-37.58h10.57v37.58ZM538.83,82.59h-27.33v-9.48h27.33v9.48ZM543.92,96.73h-10.52v-37.58h10.52v37.58ZM444.85,96.73h-10.36v-37.58h10.52l-.17,37.58ZM463.72,96.73h-26.48v-9.48h26.48v9.48ZM399.1,96.73h-10.88l13.07-37.58h15.33l13.07,37.58h-11.55l-5.95-18.62-2.96-9.81h-.88l-3.11,9.81-6.14,18.62ZM422.15,89.48h-26.16v-9.19h26.14v9.19h.02ZM345.33,96.73h-10.57v-37.58h10.57v37.58ZM364.94,82.59h-27.33v-9.48h27.33v9.48ZM370.07,96.73h-10.75v-37.58h10.57l.19,37.58ZM268.61,96.73h-10.63v-37.58h10.52l.1,37.58ZM288.43,68.63h-27.48v-9.48h27.48v9.48ZM287.61,82.59h-26.66v-9.42h26.66v9.42ZM288.43,96.73h-27.48v-9.48h27.48v9.48ZM233.18,96.73h-10.57v-37.58h10.57v37.58ZM252.02,96.73h-26.48v-9.48h26.48v9.48ZM187.39,96.73h-10.88l13.07-37.58h15.31l13.07,37.58h-11.61l-5.95-18.62-2.96-9.81h-.79l-3.07,9.81-6.18,18.62ZM210.28,89.49h-26.14v-9.19h26.14v9.19Z"/>
</svg>
